<?xml version="1.0" encoding="utf-8"?>
<!-- Generator: Adobe Illustrator 27.5.0, SVG Export Plug-In . SVG Version: 6.00 Build 0)  -->
<svg version="1.1" xmlns="http://www.w3.org/2000/svg" xmlns:xlink="http://www.w3.org/1999/xlink" x="0px" y="0px"
	 viewBox="0 0 450 450" style="enable-background:new 0 0 450 450;" xml:space="preserve">
<g id="Layer_2">
	<radialGradient id="SVGID_1_" cx="225" cy="225" r="404.2013" gradientUnits="userSpaceOnUse">
		<stop  offset="0" style="stop-color:#FFFFFF"/>
		<stop  offset="0.2646" style="stop-color:#FAFAFA"/>
		<stop  offset="0.5697" style="stop-color:#ECECEC"/>
		<stop  offset="0.8938" style="stop-color:#D5D5D5"/>
		<stop  offset="1" style="stop-color:#CCCCCC"/>
	</radialGradient>
	<rect style="fill:url(#SVGID_1_);" width="450" height="450"/>
</g>
<g id="Layer_1">
	<g>
		<g>
			<path style="fill:#006189;" d="M160.632,313.019c0-1.313,1.527-4.824,4.061-9.281c-1.038-0.031-1.923-0.061-2.442-0.061
				c0.244-0.61,1.435-1.038,3.297-1.374c3.206-5.313,7.328-9.77,10.656-11.571c0.031-0.275,0.061-0.489,0.061-0.58
				c1.13,0,4.214,1.343,4.366,1.893c-1.343,2.351-2.748,7.236-3.603,13.74c-0.214,1.618-0.367,3.694-0.367,6.259
				c0,0.886,0,1.832,0.061,2.84c-0.091,0.03-0.122,0.03-0.366,0.03c-1.13,0-3.267-0.824-3.481-1.344
				c-0.03-0.519-0.03-1.038-0.03-1.588c0-2.503,0.183-5.129,0.611-7.877c-1.13-0.092-3.939-0.214-6.504-0.306
				c-0.977,1.802-1.862,3.664-2.473,5.466c-0.671,1.924-1.129,3.969-1.252,5.679C161.273,314.362,160.632,313.874,160.632,313.019z
				 M175.623,293.845c-2.045,0.763-5.068,4.061-7.602,8.152c1.71-0.153,3.664-0.245,5.831-0.275
				c0.306-1.679,0.703-3.389,1.161-5.129C175.165,296.012,175.41,294.943,175.623,293.845z"/>
			<path style="fill:#006189;" d="M181.545,304.775c0.183-0.794,1.069-3.97,2.901-4.886c0.671,0.153,2.045,0.824,2.839,2.016
				c-1.862,2.076-2.412,4.244-3.45,6.931c-0.427,1.13-0.885,2.442-0.916,3.328c0,0.732,0,1.008-0.183,1.008
				c-0.305,0-2.229-0.794-2.229-2.596C180.507,309.874,180.751,308.44,181.545,304.775z M186.43,296.775
				c-0.214-0.214-0.366-0.672-0.366-1.008c0-0.702,0.427-2.687,0.946-3.999c0.947,0,3.084,1.221,3.694,2.137
				c-0.915,0.855-3.145,3.572-3.45,4.244c-0.488-0.092-0.915-0.488-0.915-0.824C186.339,297.203,186.369,297.02,186.43,296.775z"/>
			<path style="fill:#006189;" d="M190.612,300.348c0.519-1.252,0.885-1.893,1.374-2.381c1.13,0.183,2.565,0.885,3.054,1.465
				c-1.1,1.282-1.863,2.84-2.718,5.436c2.168-1.954,3.817-3.603,5.282-5.802c0.153-0.122,0.306-0.152,0.641-0.152
				c0.58,0,1.191,0.214,1.374,0.519c-0.366,0.978-0.549,1.924-0.549,2.9c0,0.886,0.122,1.558,0.397,2.016
				c-0.031,0.244-0.642,1.068-1.252,1.68c-1.099-0.55-2.015-1.618-2.412-2.81c-3.847,2.656-5.16,4.824-6.351,10.442
				c-0.732-0.061-2.229-1.038-2.503-1.648C187.345,309.63,189.146,303.828,190.612,300.348z"/>
			<path style="fill:#006189;" d="M210.884,291.769c0-0.306,0.122-0.855,0.275-1.161c0.519,0.245,1.618,0.336,2.992,0.336
				c4.183,0,11.175-0.854,12.244-0.854c1.496,0,2.045,1.222,2.381,3.084c-1.037-0.092-2.168-0.153-2.9-0.153
				c-1.282,0-2.626,0.092-3.97,0.245c-1.16,2.32-2.809,6.778-3.725,9.557c-1.771,5.404-2.656,8.915-3.206,12.365
				c-1.404-0.214-2.504-1.068-3.42-2.564c0.672-2.534,1.771-5.771,4-11.908c0.855-2.32,1.832-5.068,2.32-6.961
				c-1.709,0.214-3.267,0.366-4.457,0.366C211.8,294.119,210.884,293.081,210.884,291.769z"/>
			<path style="fill:#006189;" d="M225.141,300.348c0.519-1.252,0.884-1.893,1.374-2.381c1.129,0.183,2.564,0.885,3.053,1.465
				c-1.1,1.282-1.863,2.84-2.717,5.436c2.168-1.954,3.816-3.603,5.281-5.802c0.152-0.122,0.305-0.152,0.641-0.152
				c0.58,0,1.191,0.214,1.375,0.519c-0.367,0.978-0.551,1.924-0.551,2.9c0,0.886,0.123,1.558,0.398,2.016
				c-0.031,0.244-0.643,1.068-1.252,1.68c-1.1-0.55-2.016-1.618-2.412-2.81c-3.848,2.656-5.161,4.824-6.351,10.442
				c-0.733-0.061-2.23-1.038-2.504-1.648C221.873,309.63,223.675,303.828,225.141,300.348z"/>
			<path style="fill:#006189;" d="M247.307,301.355c-1.648,3.42-2.779,7.022-2.779,9.099c0,1.13,0.244,1.924,0.795,2.229
				c-0.488,0.305-1.375,0.549-1.984,0.549c-1.1,0-1.65-0.732-1.65-2.259c0-1.13,0.398-2.779,1.16-4.764
				c-1.648,3.725-4.334,6.778-6.229,7.084c-1.496-0.062-2.533-1.588-2.533-3.694c0-4.55,4.396-10.778,7.693-10.962
				c0.824,0.214,2.199,1.649,2.291,2.412c-3.268,0.52-7.268,5.924-7.268,9.68c0,0.427,0.152,0.641,0.428,0.732
				c1.191-0.244,2.656-1.954,4.855-5.618c0.854-1.435,2.076-3.725,2.961-5.557C245.902,300.287,247.336,300.959,247.307,301.355z"/>
			<path style="fill:#006189;" d="M252.373,299.188c0.58,0,1.404,0.122,1.74,0.428c-0.336,1.344-0.396,1.862-0.457,4.61
				c-0.063,2.778-0.154,4.794-0.826,6.962c0,0.122,0.031,0.122,0.092,0.122c1.191-0.916,3.299-3.573,4.732-5.954
				c0.978-1.68,2.322-4.428,3.084-7.328c0.52,0,1.65,0.428,1.895,0.702c-0.154,3.48-3.359,7.511-5.283,9.71
				c-1.953,2.29-3.725,3.969-6.473,5.648c-1.068-0.397-1.709-1.13-1.709-1.862c0-1.008,1.098-2.199,1.098-6.81
				c0-1.343-0.092-2.87-0.092-3.602C250.174,300.317,250.51,299.188,252.373,299.188z"/>
			<path style="fill:#006189;" d="M264.951,309.05c0,0.244-0.031,0.519-0.031,0.794c0,1.038,0.244,2.442,1.404,2.442
				c2.199,0,4.305-2.198,5.588-3.572c0.213,0.184,0.367,0.336,0.52,0.52c-1.832,2.411-4.184,4.152-6.107,4.579
				c-2.809-0.305-4.457-2.228-4.457-4.671c0-5.008,4.58-10.9,8.609-10.9c0.916,0.122,1.803,0.702,2.627,1.74
				C272.797,304.989,270.141,306.974,264.951,309.05z M265.195,307.89c3.236-1.618,5.648-4.122,5.801-6.9
				C268.768,301.294,266.172,304.103,265.195,307.89z"/>
			<path style="fill:#006189;" d="M276.918,301.233c2.504-6.84,4.703-11.389,6.809-13.953c0.977,0.183,3.084,1.404,3.42,1.923
				c-3.176,3.756-5.465,7.878-7.48,13.465c-1.709,4.764-2.625,8.732-2.625,11.298c0,0.702,0,0.732,0.029,0.885
				c-0.549-0.061-1.008-0.305-1.129-0.58c-0.092-0.214-0.551-0.702-0.824-0.885c-0.367-0.244-0.641-1.405-0.641-2.718
				C274.477,308.897,275.361,305.508,276.918,301.233z"/>
		</g>
	</g>
	<g>
		<g>
			<path style="fill:#05ABC0;" d="M258.238,259.7c-0.684,0.365-1.48,0.768-2.288,1.166C256.739,260.49,257.51,260.104,258.238,259.7
				z"/>
			<path style="fill:#05ABC0;" d="M242.766,265.053c2.298-1.639,4.271-4.705,5.76-9.149c2.112-0.391,4.179-0.891,6.21-1.454
				c-1.332-0.262-2.67-0.547-4.013-0.849c-0.534,0.111-1.06,0.24-1.598,0.34c0.059-0.21,0.109-0.441,0.166-0.656
				c-1.543-0.361-3.092-0.748-4.645-1.16c-0.18,0.9-0.368,1.771-0.571,2.59c-9.907,1.194-20.362,0.656-30.259-1.471
				c0.105-2.989,0.361-6.487,0.777-10.479c0.049-0.471,0.109-0.961,0.162-1.439c-1.699-0.78-3.385-1.588-5.058-2.417
				c-0.104,0.865-0.212,1.735-0.298,2.579c-0.42,3.995-0.616,7.507-0.618,10.522c-9.64-2.657-18.536-6.873-25.599-12.49
				c-0.526-3.271-0.611-6.919-0.191-10.916c0.168-1.63,0.425-3.28,0.75-4.944c-0.484-0.138-0.967-0.276-1.426-0.413
				c-0.884,0.167-1.771,0.306-2.658,0.443c-0.086,0.609-0.162,1.217-0.225,1.822c-0.42,3.992-0.3,7.68,0.303,11.01
				c-2.99-2.849-5.319-5.832-7.047-8.873c-0.193,0.055-0.385,0.097-0.579,0.125c1.746,3.771,4.436,7.48,8.116,10.984
				c1.229,4.777,3.525,8.741,6.687,11.767l2.558,2.311l1.563,1.287l2.754,2.072c4.992,3.531,11.001,6.224,17.441,8
				c0.424,0.486,0.892,0.806,1.416,0.95l2.293,0.589l1.101,0.248c-0.374-0.084-0.708-0.372-0.998-0.849
				c7.491,1.603,15.41,2.013,22.909,1.105c-0.601,0.359-1.214,0.582-1.851,0.661l2.648-0.38l1.099-0.192
				c0.661-0.13,1.306-0.349,1.925-0.669c3.977-0.738,7.785-1.867,11.302-3.402c0.011-0.004,0.023-0.01,0.035-0.015
				c0.855-0.407,1.858-0.891,2.846-1.377c-0.44,0.21-0.88,0.42-1.337,0.62C250.928,263.094,246.932,264.277,242.766,265.053z
				 M190.411,253.606c-3.269-2.857-5.603-6.863-6.792-11.893c6.95,5.529,15.707,9.674,25.195,12.289
				c0.152,4.521,0.815,7.714,1.92,9.519C203.082,261.41,196.018,258.065,190.411,253.606z M238.76,265.663
				c-7.875,0.95-16.174,0.523-24.024-1.164c-0.678-1.694-1.018-4.809-0.964-9.278c9.739,2.088,20.027,2.621,29.786,1.441
				C242.27,261.074,240.631,264.091,238.76,265.663z"/>
			<path style="fill:#05ABC0;" d="M194.435,156.906c0.598-0.434,1.216-0.858,1.867-1.27
				C195.741,156.02,195.089,156.459,194.435,156.906z"/>
			<path style="fill:#05ABC0;" d="M289.14,201.129c-0.009-0.099-0.017-0.199-0.026-0.298l-0.294-2.485l-0.303-1.925
				c0.123,0.698,0.209,1.389,0.271,2.085c-1.056-6.158-3.686-11.925-7.579-17.031c-0.414-4.819-2.581-9.729-6.578-14.326
				l-1.65-1.824l-1.152-1.191c-0.093-0.097-0.189-0.192-0.283-0.283c-0.055-0.053-0.115-0.101-0.17-0.153
				c0.086,0.083,0.175,0.168,0.258,0.248c4.818,4.877,7.404,10.191,7.848,15.401c-4.239-4.906-9.705-9.115-16.086-12.369
				c-0.292-3.339-1.951-6.747-5.053-9.866c5.185,1.058,9.601,3.306,13.033,6.585c-1.023-0.983-2.278-2.108-3.253-3
				c-7.203-6.141-18.636-7.235-32.151-1.948c0.052,0.047,0.101,0.09,0.146,0.136c7.311-2.282,14.061-2.934,19.945-2.157
				c2.807,2.822,4.313,5.906,4.569,8.928c-7.12-3.194-15.255-5.246-24.034-5.828c0.005,0.054,0.007,0.107,0.006,0.164
				c8.783,1.079,16.924,3.598,24.053,7.213c-0.165,2.977-1.562,5.846-4.133,8.273c-6.005-5.851-12.9-10.881-20.356-14.614
				c-0.048,0.047-0.097,0.091-0.153,0.129c7,4.127,13.456,9.523,19.078,15.704c-1.363,1.036-2.957,1.97-4.792,2.775
				c-2.181,0.954-4.548,1.65-7.015,2.107c-2.429-7.503-5.305-14.378-8.518-20.069c-0.081,0.017-0.169,0.024-0.25,0.037
				c2.45,5.81,4.607,12.793,6.395,20.396c-4.66,0.562-9.567,0.313-14.217-0.69c2.061-7.414,4.209-14.193,6.319-19.777
				c-0.084-0.021-0.167-0.039-0.255-0.063c-2.865,5.4-5.73,12.003-8.43,19.26c-4.53-1.25-8.709-3.228-12.031-5.866
				c5.962-5.669,12.467-10.496,19.192-14.013c-0.018-0.019-0.042-0.04-0.067-0.058c-0.03-0.028-0.066-0.06-0.1-0.092
				c-7.245,3.069-14.247,7.464-20.645,12.754c-2.934-2.796-4.558-5.868-4.942-8.896c7.733-2.881,16.233-4.583,25.063-4.798
				c-0.002-0.055-0.007-0.11-0.01-0.165c-8.859-0.287-17.384,0.945-25.138,3.403c0.053-2.992,1.337-5.878,3.792-8.35
				c6.73-0.2,14.105,1.099,21.749,4.066c0.043-0.044,0.089-0.087,0.143-0.133c-7.203-3.362-14.164-5.038-20.519-5.172
				c1.444-1.17,3.18-2.219,5.216-3.104c1.986-0.87,4.122-1.529,6.358-1.986c3.219,1.511,6.673,4.729,10.165,9.726
				c0.082-0.015,0.166-0.03,0.251-0.044c-2.736-5.126-5.478-8.465-8.065-10.083c4.63-0.642,9.542-0.463,14.214,0.462
				c-1.258,1.495-2.824,4.694-4.646,9.669c0.086,0.018,0.171,0.038,0.252,0.059c2.589-4.804,4.885-7.836,6.786-9.184
				c4.956,1.278,9.524,3.427,13.055,6.347c0.715,0.05,1.42,0.123,2.103,0.227c-3.901-3.23-8.95-5.602-14.426-7.016
				c0.702-0.354,1.341-0.448,1.916-0.295l-1.349-0.335l-2.044-0.441c-0.344-0.071-0.73,0.083-1.163,0.469
				c-5.163-1.026-10.593-1.221-15.71-0.512c-1.13-0.518-2.226-0.696-3.271-0.549l-1.616,0.247l-2.206,0.408
				c1.417-0.298,2.922-0.189,4.487,0.338c-2.464,0.504-4.83,1.23-7.023,2.192c-2.248,0.981-4.172,2.139-5.765,3.431
				c-5.774,0.255-10.98,1.83-15.334,4.613c0.458-0.371,0.94-0.733,1.433-1.09c-0.798,0.545-1.603,1.103-2.269,1.599
				c-0.331,0.247-0.649,0.497-0.962,0.751c-0.243,0.188-0.486,0.376-0.725,0.571l-2.335,2.003l-2.462,2.351
				c0.951-0.967,1.965-1.864,3.046-2.691c-4.438,4.462-6.754,9.683-6.846,15.09c-4.936,4.668-8.753,10.114-11.087,16.111
				c0.046-2.853,0.614-5.659,1.695-8.361l-1.479,4.162c-0.701,2.206-1.073,4.467-1.112,6.76c-0.724,2.328-1.225,4.728-1.489,7.191
				l0.547,0.921c0.28-1.601,0.651-3.18,1.127-4.732c0.376,3.014,1.331,6.049,2.863,9.039l1.168-0.389
				c0.315-0.108,0.588-0.185,0.845-0.248c-2.201-3.616-3.522-7.325-3.984-11.001c2.329-6.087,6.134-11.719,11.056-16.639
				c0.686,5.468,3.626,11.018,8.93,16.074c-3.297,5.071-6.005,10.348-8,15.646l0.579,0.05c1.282,0.129,2.528,0.288,3.727,0.465
				c1.77-4.582,3.999-9.16,6.626-13.618c1.643,1.308,3.412,2.518,5.27,3.643c0.287-0.274,0.647-0.467,1.045-0.526
				c0.163-0.024,0.33-0.027,0.493-0.01c0.416,0.042,0.816,0.215,1.125,0.508l0.743,0.708c0.079,0.076,0.152,0.156,0.218,0.246
				c0.337,0.452,0.541,0.93,0.651,1.421c3.8,1.883,7.898,3.432,12.178,4.614c-1.939,7.519-3.564,15.041-4.743,22.127
				c-1.323-0.365-2.629-0.766-3.922-1.188c1.259,0.713,2.519,1.403,3.779,2.075c1.638,0.874,3.276,1.71,4.915,2.513
				c0.995,0.488,1.99,0.961,2.985,1.423c9.148,1.65,18.664,1.992,27.734,0.898c-0.11,2.699-0.3,5.313-0.56,7.816
				c-0.022,0.213-0.05,0.408-0.073,0.618c1.665,0.372,3.328,0.701,4.988,0.997c0.106-0.787,0.209-1.583,0.296-2.413
				c0.257-2.502,0.422-5.11,0.494-7.805c5.348-0.989,10.476-2.509,15.209-4.58c3.983-1.737,7.454-3.762,10.393-6.019
				c0.136,2.613,0.085,5.181-0.179,7.681c-0.42,3.993-1.33,7.599-2.68,10.793c-1.895,1.443-4.03,2.782-6.36,4.022
				c0.881,0.012,1.759,0.013,2.633,0c0.95-0.615,1.87-1.244,2.729-1.899c-0.33,0.641-0.687,1.254-1.054,1.855
				c0.411-0.013,0.821-0.026,1.23-0.045c1.051-1.35,2.005-2.8,2.833-4.363c2.4-2.276,4.315-4.731,5.724-7.306l1.265-2.532
				c-1.449,2.706-3.426,5.287-5.944,7.669c1.416-3.243,2.362-6.875,2.778-10.871c0.262-2.506,0.304-5.063,0.141-7.645
				c5.569-5.27,8.596-11.482,8.962-17.946c0.07,0.732,0.102,1.471,0.128,2.21c-0.017-1.77-0.068-3.597-0.137-5.122
				C289.17,201.428,289.155,201.278,289.14,201.129z M263.419,168.688c6.393,3.631,11.858,8.175,16.105,13.346
				c-0.292,5.173-2.717,10.145-7.174,14.361c-3.531-6.598-8.112-12.913-13.497-18.563
				C261.689,175.148,263.232,171.981,263.419,168.688z M225.888,184.218c5.135,1.103,10.562,1.383,15.71,0.764
				c1.572,7.223,2.809,14.922,3.649,22.638c-8.085,0.978-16.605,0.536-24.68-1.194C222.182,198.83,223.988,191.279,225.888,184.218z
				 M190.625,160.145c4.588-2.997,10.085-4.839,16.193-5.394c-2.712,2.729-4.13,5.925-4.18,9.229
				c-7.037,2.592-13.349,6.223-18.591,10.66C184.133,169.449,186.361,164.435,190.625,160.145z M192.77,192.789
				c-5.097-4.858-7.922-10.192-8.577-15.441c5.224-4.708,11.524-8.672,18.531-11.646c0.419,3.344,2.22,6.739,5.465,9.831
				C202.384,180.677,197.145,186.547,192.77,192.789z M195.584,195.233c4.096-6.481,8.983-12.653,14.396-18.141
				c3.668,2.917,8.285,5.103,13.291,6.484c-2.474,6.918-4.79,14.349-6.806,21.839C208.6,203.248,201.342,199.816,195.584,195.233z
				 M246.465,233.465c-9.996,1.205-20.538,0.661-30.517-1.48c1.039-7.124,2.386-14.713,3.949-22.326
				c8.398,1.804,17.271,2.263,25.684,1.241C246.307,218.627,246.621,226.301,246.465,233.465z M244.215,184.579
				c2.727-0.507,5.34-1.28,7.754-2.332c2.028-0.888,3.798-1.923,5.296-3.065c5.035,5.948,9.304,12.521,12.593,19.33
				c-2.356,1.803-5.134,3.424-8.321,4.814c-3.782,1.656-7.892,2.873-12.173,3.667C248.118,199.339,246.372,191.721,244.215,184.579z
				 M266.605,228.156c-4.686,2.045-9.759,3.544-15.05,4.527c0.015-7.14-0.586-14.767-1.693-22.434
				c4.456-0.826,8.73-2.092,12.669-3.814c3.323-1.449,6.21-3.138,8.661-5.012c3.006,6.881,4.982,13.939,5.7,20.775
				C273.976,224.427,270.545,226.433,266.605,228.156z M279.968,219.585c-0.801-6.766-2.947-13.681-6.182-20.366
				c4.639-4.392,7.163-9.564,7.466-14.947c3.898,5.352,6.529,11.297,7.587,17.554C288.479,208.223,285.477,214.368,279.968,219.585z
				"/>
			<path style="fill:#05ABC0;" d="M289.318,206.698c0.012,1.212,0.009,2.399-0.019,3.442
				C289.367,208.985,289.36,207.839,289.318,206.698z"/>
		</g>
		<g>
			<path style="fill:#006189;" d="M161.302,203.972l1.415-5.555c-19.523-20.87-20.29-39.644,0.604-45.109
				c1.682-0.443,3.502-0.79,5.406-1.044c3.804-0.502,11.684-0.462,17.252-0.183c0.222,0.011,0.711,0.028,1.334,0.047
				c2.255,0.069,6.384,0.176,7.033,0.227c2.414-0.968,3.579-1.465,7.429-2.45c-1.38-0.251-6.373-1.276-8.868-1.718
				c-0.395-0.07-0.733-0.126-0.978-0.162c-10.111-1.456-22.638-2.297-29.736-1.354c-2.131,0.281-4.156,0.667-6.028,1.16
				C130.93,154.443,134.019,178.43,161.302,203.972z"/>
			<path style="fill:#006189;" d="M296.776,205.658c-0.095-0.112-0.401-0.469-0.815-0.94c-0.752-0.855-1.872-2.102-2.819-3.055
				c0.076,1.811,0.111,3.301,0.013,4.668c0.76,0.868,1.934,2.657,2.638,3.781c0.304,0.484,0.522,0.847,0.579,0.957
				c8.89,16.913,6.268,32.44-9.694,36.614c-1.678,0.444-3.502,0.791-5.402,1.045c-3.087,0.41-6.276,0.658-9.551,0.745
				c-0.276,0.008-0.553,0.015-0.83,0.02c-1.197,0.021-2.407,0.02-3.627-0.004c-1.019-0.02-2.044-0.055-3.077-0.107
				c-4.454-0.222-9.047-0.743-13.756-1.585c-1.629-0.291-3.271-0.621-4.927-0.989c-9.661-2.152-19.763-5.638-30.127-10.653
				c-1.65-0.799-3.308-1.641-4.971-2.518c-2.88-1.518-5.776-3.149-8.688-4.907l-5.433-0.3l-1.553-0.086
				c4.912,3.097,10.012,5.953,15.212,8.559c1.667,0.835,3.345,1.644,5.031,2.426c9.921,4.604,20.109,8.275,30.017,10.901
				c1.594,0.423,3.181,0.822,4.757,1.189c1.784,0.416,3.556,0.797,5.313,1.142c1.214,0.238,2.42,0.459,3.618,0.662
				c2.598,0.441,5.153,0.797,7.658,1.07c0.004,0,0.008,0.001,0.011,0.001c7.761,0.848,15.028,0.887,21.46,0.032
				c2.125-0.286,4.138-0.681,6.007-1.173C315.75,247.419,314.955,227.299,296.776,205.658z"/>
			<path style="fill:#006189;" d="M201.733,223.965c0,0,4.095-1.291,0.742-4.915c0,0-1.882-2.195-8.369-4.034
				c0.687-0.612,1.921-1.756,3.19-3.105l1.621,1.206c0.085,0.081,0.178,0.151,0.282,0.211c0.083,0.042,0.169,0.082,0.262,0.11
				c0.772,0.233,1.597-0.236,1.845-1.048c0.162-0.534,0.034-1.081-0.288-1.462c-0.168-0.203-0.394-0.358-0.66-0.442
				c-0.043-0.013-0.086-0.021-0.131-0.028l-1.087-0.652c1.822-2.279,3.141-4.685,2.103-6.074l-0.744-0.708
				c0,0-2.308,4.317-12.503,10.666c-0.459-0.075-0.935-0.145-1.421-0.214c-1.219-0.173-2.522-0.328-3.92-0.459
				c0,0-0.136-0.021-0.364-0.058c-0.577-0.092-1.801-0.285-3.293-0.516c-1.068-0.166-2.267-0.35-3.458-0.53
				c-1.207-0.182-2.402-0.359-3.437-0.505l2.345-1.121l1.592-0.761c0,0,0.225-0.238,0.278-0.439
				c0.032-0.121-0.001-0.228-0.181-0.262c-0.214-0.04-0.635,0.022-1.411,0.287l-0.831,0.277l-3.01,1.005l-2.338-3.942l-0.346-0.583
				l-1.74-2.935c0,0-1.469-2.832-1.023,0.662c0,0,0.91,4.825,2.29,7.23l-7.574,1.579c0,0-1.108,0.486,0.513,0.567l7.472-0.062
				c0.111,0.238,0.274,0.52,0.464,0.823c0.003,0.005,0.007,0.01,0.01,0.015c0.07,0.112,0.131,0.216,0.214,0.337
				c0.644,0.94,1.712,1.921,3.235,2.905c0.822,0.529,1.908,1.147,3.551,1.859c-2.994,0.421-11.755,1.426-22.081,0.452
				c0,0-4.567,0.042,3.556,2.38c0,0,0.5,1.46,0.758,2.198c0.324,0.923,2.172,0.853,2.28-0.121c0.057-0.501-0.434-1.495-0.434-1.495
				c2.631,0.428,5.331,0.558,8.869,0.491c0,0,1.192,2.03,1.786,2.69c0.257,0.283,0.604,0.409,0.971,0.442
				c0.143,0.013,0.286,0.014,0.431-0.003c0.781-0.091,1.55-0.569,1.711-1.099c0.107-0.349,0.092-0.702-0.018-1.025
				c-0.072-0.215-0.188-0.412-0.342-0.583l-0.362-0.62c2.322-0.172,4.754-0.454,7.242-0.858c0.808-0.131,1.622-0.274,2.441-0.432
				c0.544,0.164,1.119,0.333,1.719,0.505c0.622,0.178,1.276,0.36,1.962,0.546c1.446,0.392,3.037,0.8,4.794,1.227
				c0,0,1.456,0.379,3.438,0.647C196.561,224.491,199.457,224.651,201.733,223.965z"/>
		</g>
	</g>
</g>
</svg>
